<svg height="512pt" viewBox="0 0 512 512" width="512pt" xmlns="http://www.w3.org/2000/svg"><path d="m492 386c-36.5 0-42.316406-24.464844-75-40.546875v-37.789063c18.109375 15.191407 36.859375 32.335938 75 32.335938 11.046875 0 20-8.953125 20-20s-8.953125-20-20-20c-36.546875 0-42.3125-24.492188-75-40.554688v-219.445312h37c11.046875 0 20-8.953125 20-20s-8.953125-20-20-20c-12.277344 0-375.101562 0-396 0-11.046875 0-20 8.953125-20 20s8.953125 20 20 20h37v219.449219c-32.703125 16.078125-38.4375 40.550781-74.988281 40.550781-11.046875 0-20.0000002 8.953125-20.0000002 20s8.9531252 20 20.0000002 20c35.523437 0 53.328125-14.152344 74.988281-32.324219v37.777344c-32.667969 16.078125-38.535156 40.546875-75 40.546875-11.046875 0-20 8.953125-20 20s8.953125 20 20 20c67.613281 0 69.199219-50 118.003906-50 47.640625 0 51.429688 50 118 50 65.488282 0 71.464844-50 118-50 48.730469 0 50.492188 50 117.996094 50 11.046875 0 20-8.953125 20-20s-8.953125-20-20-20zm-115-49.957031c-.988281-.027344-1.984375-.042969-2.996094-.042969-65.476562 0-71.472656 50-118 50-47.640625 0-51.429687-50-118-50-1.015625 0-2.015625.015625-3.003906.042969 0-14.632813 0-286.558594 0-296.042969h242zm135 155.957031c0 11.046875-8.953125 20-20 20-66.570312 0-70.359375-50-117.996094-50-46.535156 0-52.511718 50-118 50-66.570312 0-70.359375-50-118-50-46.570312 0-52.476562 50-118.003906 50-11.046875 0-20-8.953125-20-20s8.953125-20 20-20c46.527344 0 52.527344-50 118.003906-50 66.570313 0 70.359375 50 118 50 46.527344 0 52.523438-50 118-50 66.566406 0 70.355469 50 117.996094 50 11.046875 0 20 8.953125 20 20zm0 0"/></svg>